<svg width="1103" height="322" viewBox="0 0 1103 322" fill="none" xmlns="http://www.w3.org/2000/svg">
<path d="M906.8 250.1H871V287.8H906.8V250.1Z" fill="#FF8F28"/>
<path d="M708.7 223.3V227.5H744.7V167.2C744.7 183.7 738 199.5 726.2 211.1C721.1 216.2 715.2 220.3 708.7 223.3Z" fill="#BE78FF"/>
<path d="M329.9 191.9H292.6V227.4H329.9V191.9Z" fill="#FF50A4"/>
<path d="M1029 195.7H993.4V231.3H1029V195.7Z" fill="#04E1FF"/>
<path d="M181.6 92.2V88H145.6V148.3C145.6 131.8 152.3 116 164.1 104.4C169.2 99.3 175.2 95.2 181.6 92.2Z" fill="#BE78FF"/>
<path d="M871 96.2C860.3 89.9 847.9 86.2 834.6 86.2C795.2 86.2 763.1 118.3 763.1 157.7C763.1 197.1 795.2 229.2 834.6 229.2C847.9 229.2 860.3 225.6 871 219.2V249.9H906.8V88H871V96.2ZM834.6 194C814.6 194 798.4 177.7 798.4 157.8C798.4 137.8 814.7 121.6 834.6 121.6C854.5 121.6 870.8 137.9 870.8 157.8C870.8 177.7 854.6 194 834.6 194Z" fill="white"/>
<path d="M847.3 145.1C844.8 142.6 841.6 140.9 838.1 140.2C834.6 139.5 831 139.9 827.8 141.2C824.5 142.6 821.7 144.8 819.8 147.8C817.8 150.7 816.8 154.2 816.8 157.7C816.8 162.4 818.7 167 822 170.4C825.4 173.8 829.9 175.6 834.7 175.6C838.2 175.6 841.7 174.6 844.6 172.6C847.5 170.6 849.8 167.8 851.2 164.6C852.6 161.3 852.9 157.7 852.2 154.3C851.5 150.8 849.8 147.6 847.3 145.1Z" fill="white"/>
<path d="M476.1 37.2H439.6V88V123.8V169.1C439.6 185.6 446.4 201.3 458.4 213C470.4 224.6 486.7 231.2 503.7 231.2V195.6C496.4 195.6 489.4 192.8 484.3 187.8C479.1 182.8 476.2 176 476.2 169V123.8H518.8V88H476.2V37.2H476.1Z" fill="white"/>
<path d="M573.3 88H537.5V149.3V227.4H573H573.3V145.3C574.2 139.8 576.7 134.6 580.8 130.6C585.8 125.7 592.6 122.9 599.7 122.9V88C590.5 88 581.5 90 573.3 93.8V88Z" fill="white"/>
<path d="M708.7 167.2C708.7 174.3 705.8 181.1 700.8 186.1C695.7 191.1 688.8 193.9 681.6 193.9C674.4 193.9 667.5 191.1 662.4 186.1C657.3 181.1 654.5 174.3 654.5 167.2V88H618.5V167.2C618.5 183.7 625.2 199.5 637 211.1C648.8 222.8 664.9 229.3 681.6 229.3C691.1 229.3 700.3 227.2 708.7 223.3C715.1 220.3 721.1 216.2 726.2 211.1C738 199.4 744.7 183.6 744.7 167.2V88H708.7V167.2Z" fill="white"/>
<path d="M114.5 99.7C109.1 101.9 103.3 103.1 97.4 103C91.6 103 85.8 101.9 80.4 99.7H80H79.7V227.4H115.5V99.3L114.9 99.6L114.5 99.7Z" fill="white"/>
<path d="M115.7 42.2C113.5 40 110.8 38.3 107.9 37.2C104.9 35.9 101.7 35.2 98.4 35.2C91.9 35.3 85.7 37.8 81 42.2C78.8 44.4 77 46.9 75.8 49.7C74.6 52.6 73.9 55.6 73.9 58.7C73.9 61.9 74.5 65 75.8 67.9C78.3 73.6 82.9 78.1 88.8 80.5C91.8 81.7 95.1 82.3 98.4 82.3C101.7 82.3 104.9 81.7 107.9 80.5C110.8 79.3 113.5 77.6 115.8 75.5C118 73.3 119.8 70.8 121 68C122.3 65.1 123 62 123 58.8C123 55.7 122.3 52.6 121 49.8C119.8 47 118 44.4 115.7 42.2Z" fill="white"/>
<path d="M407.5 153.2C403.3 149.5 398.5 146.6 393.2 144.7C387.6 142.6 381.7 141.5 375.7 141.6H338C336.8 141.6 335.6 141.4 334.5 140.9C333.4 140.5 332.4 139.8 331.6 139C330.7 138.1 330.1 137.1 329.6 136C329.1 134.9 328.9 133.7 328.9 132.5C328.9 130.2 329.9 127.9 331.6 126.2C333.3 124.5 335.6 123.6 338 123.6H411.4V88H338C326 88 314.5 92.7 305.9 100.9C301.8 105 298.5 109.7 296.2 115C291.6 126.1 291.6 138.6 296.2 149.7C298.5 155 301.8 159.8 305.9 163.9C310 168 314.9 171.2 320.2 173.4C325.8 175.8 331.8 176.9 337.8 176.9H375.5C377.7 176.8 379.9 177.2 381.9 178.1C382.8 178.6 383.5 179.3 384 180.2C384.5 181.1 384.7 182.1 384.5 183.1C384.5 184.2 384.2 185.4 383.7 186.4C383.2 187.4 382.5 188.4 381.7 189.2C380.9 190.1 379.9 190.7 378.8 191.2C377.7 191.7 376.5 191.9 375.3 191.9H329.8V227.4H375.3C381.4 227.5 387.4 226.4 393 224.2C398.3 221.9 403.2 218.7 407.3 214.7C411.4 210.6 414.7 205.8 417 200.6C419.4 195.1 420.6 189.2 420.6 183.2C420.7 177.6 419.5 172 417.3 166.8C415.1 161.7 411.7 157 407.5 153.2Z" fill="white"/>
<path d="M974 187.8C968.8 182.8 965.9 176 965.9 169V123.8H1010.4V88H965.9V37.2H929.4V88V123.8V169.1C929.4 185.6 936.2 201.3 948.2 213C960.2 224.6 976.5 231.2 993.5 231.2V195.6C986.1 195.6 979.1 192.8 974 187.8Z" fill="white"/>
<path d="M208.7 86.1C199.2 86.1 190 88.2 181.6 92.1C175.2 95.1 169.2 99.2 164.1 104.3C152.3 116 145.6 131.8 145.6 148.2V227.4H181.6V148.2C181.6 141.1 184.5 134.3 189.5 129.3C194.6 124.3 201.5 121.5 208.7 121.5C215.9 121.5 222.8 124.3 227.9 129.3C233 134.3 235.8 141.1 235.8 148.2V227.4H271.8V148.2C271.8 131.7 265.1 115.9 253.3 104.3C241.5 92.7 225.5 86.2 208.7 86.1Z" fill="white"/>
</svg>
